<?xml version="1.0" encoding="UTF-8"?>
<svg version="1.1" xmlns="http://www.w3.org/2000/svg" width="115" height="114">
<path d="M0 0 C10.05920262 6.81542672 10.05920262 6.81542672 11.94702148 10.59106445 C13.08131592 10.22754883 13.08131592 10.22754883 14.23852539 9.85668945 C17.68025086 8.75922066 21.12602199 7.67503454 24.57202148 6.59106445 C25.76182617 6.20950195 26.95163086 5.82793945 28.17749023 5.43481445 C29.33120117 5.07387695 30.48491211 4.71293945 31.67358398 4.34106445 C32.7314209 4.0059082 33.78925781 3.67075195 34.87915039 3.32543945 C38.01579342 2.5746021 40.73474576 2.45634254 43.94702148 2.59106445 C44.44202148 4.07606445 44.44202148 4.07606445 44.94702148 5.59106445 C42.45237908 9.33302805 39.99243268 9.8407352 35.89233398 11.0715332 C34.84539871 11.39810661 34.84539871 11.39810661 33.77731323 11.73127747 C32.30112554 12.18927427 30.82329494 12.64200415 29.34399414 13.08984375 C27.08389278 13.77496582 24.82977112 14.47745808 22.57592773 15.18286133 C21.14005032 15.62595857 19.70386188 16.06804942 18.26733398 16.5090332 C17.5942923 16.71835983 16.92125061 16.92768646 16.22781372 17.14335632 C12.93566856 18.13283044 10.42883398 18.59106445 6.94702148 18.59106445 C6.94702148 19.25106445 6.94702148 19.91106445 6.94702148 20.59106445 C7.92928711 20.85391235 7.92928711 20.85391235 8.93139648 21.12207031 C15.97143777 23.02191196 22.96733659 25.04332162 29.94702148 27.15356445 C30.96924805 27.45713867 31.99147461 27.76071289 33.04467773 28.07348633 C34.02307617 28.36932617 35.00147461 28.66516602 36.00952148 28.9699707 C36.88737305 29.23366455 37.76522461 29.4973584 38.66967773 29.76904297 C40.94702148 30.59106445 40.94702148 30.59106445 43.94702148 32.59106445 C43.61702148 34.24106445 43.28702148 35.89106445 42.94702148 37.59106445 C35.78567616 36.11249681 28.86569875 34.13309235 21.88452148 31.96606445 C20.82813477 31.6412207 19.77174805 31.31637695 18.68334961 30.98168945 C16.10359801 30.18791973 13.52487041 29.39098731 10.94702148 28.59106445 C10.76139648 29.51918945 10.76139648 29.51918945 10.57202148 30.46606445 C9.94702148 32.59106445 9.94702148 32.59106445 7.94702148 34.59106445 C8.33035407 41.97209582 10.05926576 49.04237561 11.75952148 56.21606445 C12.02869385 57.36888916 12.29786621 58.52171387 12.57519531 59.70947266 C13.99971709 65.76124293 15.49388408 71.78197116 17.13452148 77.77856445 C18.4942482 82.77570357 19.73605519 87.77828593 20.82202148 92.84106445 C21.2203418 94.67411133 21.2203418 94.67411133 21.62670898 96.54418945 C21.94702148 99.59106445 21.94702148 99.59106445 19.94702148 102.59106445 C17.55603027 102.96528625 17.55603027 102.96528625 14.51928711 102.96337891 C12.81742249 102.97272209 12.81742249 102.97272209 11.08117676 102.98225403 C9.85096802 102.97304428 8.62075928 102.96383453 7.35327148 102.9543457 C5.46686951 102.95509346 5.46686951 102.95509346 3.5423584 102.95585632 C0.87892288 102.95351197 -1.78372297 102.94533039 -4.44702148 102.92724609 C-7.86371305 102.90455836 -11.27996252 102.90401423 -14.69670868 102.91076374 C-17.95091539 102.91490542 -21.2050433 102.90293395 -24.45922852 102.8918457 C-26.30454163 102.89321281 -26.30454163 102.89321281 -28.18713379 102.89460754 C-29.88899841 102.88030952 -29.88899841 102.88030952 -31.62524414 102.86572266 C-32.62736938 102.86111526 -33.62949463 102.85650787 -34.6619873 102.85176086 C-37.05297852 102.59106445 -37.05297852 102.59106445 -39.05297852 100.59106445 C-38.91625977 97.9387207 -38.91625977 97.9387207 -38.36547852 94.65356445 C-38.19661133 93.59266602 -38.02774414 92.53176758 -37.85375977 91.4387207 C-37.0113938 87.39125499 -35.93112552 83.45627409 -34.82226562 79.47558594 C-33.59780111 74.88432976 -32.64664904 70.24173107 -31.67797852 65.59106445 C-29.4639432 55.16276129 -26.87179671 44.87075465 -24.05297852 34.59106445 C-24.69235352 34.32293945 -25.33172852 34.05481445 -25.99047852 33.77856445 C-28.05297852 32.59106445 -28.05297852 32.59106445 -29.05297852 29.59106445 C-36.69840224 31.37210066 -44.17280758 33.49174256 -51.61938477 35.96484375 C-54.98387648 37.05721662 -57.46865218 37.59106445 -61.05297852 37.59106445 C-61.38297852 35.94106445 -61.71297852 34.29106445 -62.05297852 32.59106445 C-57.45537922 30.55317994 -52.90705298 28.82086496 -48.09594727 27.3293457 C-47.46690994 27.13382614 -46.83787262 26.93830658 -46.18977356 26.73686218 C-44.87529011 26.3292594 -43.56023439 25.92349781 -42.24462891 25.51953125 C-40.22667673 24.89932254 -38.2110416 24.27197337 -36.19555664 23.64379883 C-26.32702538 20.59106445 -26.32702538 20.59106445 -24.05297852 20.59106445 C-24.05297852 19.93106445 -24.05297852 19.27106445 -24.05297852 18.59106445 C-25.56891602 18.49825195 -25.56891602 18.49825195 -27.11547852 18.40356445 C-32.69026473 17.71410326 -37.85799585 15.76017923 -43.13891602 13.92700195 C-47.89008119 12.28027787 -52.71129081 10.88171219 -57.54125977 9.4855957 C-60.05297852 8.59106445 -60.05297852 8.59106445 -62.05297852 6.59106445 C-61.67797852 4.46606445 -61.67797852 4.46606445 -61.05297852 2.59106445 C-53.37731425 3.09954694 -46.73108012 5.12655521 -39.49047852 7.65356445 C-38.38639648 8.03061523 -37.28231445 8.40766602 -36.14477539 8.79614258 C-33.44457076 9.71958918 -30.7475596 10.65136163 -28.05297852 11.59106445 C-27.94727539 10.81633789 -27.84157227 10.04161133 -27.73266602 9.2434082 C-26.85989027 5.83757642 -25.17138007 4.77015852 -22.25219727 2.95825195 C-19.95243371 1.58806194 -19.95243371 1.58806194 -17.63500977 -0.33862305 C-10.7100129 -5.26897532 -6.82748546 -4.30105726 0 0 Z M-16.11547852 6.46606445 C-17.19958008 7.18536133 -18.28368164 7.9046582 -19.40063477 8.64575195 C-22.10832759 10.32113937 -22.10832759 10.32113937 -23.05297852 12.59106445 C-13.81297852 12.59106445 -4.57297852 12.59106445 4.94702148 12.59106445 C4.94702148 11.93106445 4.94702148 11.27106445 4.94702148 10.59106445 C2.84683135 9.11797334 0.7693442 7.7779681 -1.42797852 6.46606445 C-2.03125977 6.09352539 -2.63454102 5.72098633 -3.25610352 5.3371582 C-9.24459343 1.70414099 -10.39072911 2.63136938 -16.11547852 6.46606445 Z M-19.05297852 18.59106445 C-18.72297852 19.58106445 -18.39297852 20.57106445 -18.05297852 21.59106445 C-11.78297852 21.26106445 -5.51297852 20.93106445 0.94702148 20.59106445 C0.94702148 19.93106445 0.94702148 19.27106445 0.94702148 18.59106445 C-5.65297852 18.59106445 -12.25297852 18.59106445 -19.05297852 18.59106445 Z M-23.05297852 27.59106445 C-23.05297852 28.25106445 -23.05297852 28.91106445 -23.05297852 29.59106445 C-13.81297852 29.59106445 -4.57297852 29.59106445 4.94702148 29.59106445 C4.94702148 28.93106445 4.94702148 28.27106445 4.94702148 27.59106445 C1.55245713 26.82778963 -1.58766992 26.46291597 -5.06469727 26.45825195 C-5.98702148 26.45696289 -6.9093457 26.45567383 -7.85961914 26.4543457 C-9.28564453 26.46014648 -9.28564453 26.46014648 -10.74047852 26.46606445 C-12.18390625 26.46026367 -12.18390625 26.46026367 -13.65649414 26.4543457 C-14.57495117 26.45563477 -15.4934082 26.45692383 -16.43969727 26.45825195 C-17.27718506 26.45937988 -18.11467285 26.46050781 -18.97753906 26.46166992 C-21.11494537 26.45925979 -21.11494537 26.45925979 -23.05297852 27.59106445 Z M-19.05297852 36.59106445 C-19.05297852 38.24106445 -19.05297852 39.89106445 -19.05297852 41.59106445 C-15.42297852 39.94106445 -11.79297852 38.29106445 -8.05297852 36.59106445 C-8.05297852 36.26106445 -8.05297852 35.93106445 -8.05297852 35.59106445 C-9.69872417 35.56418295 -11.34459265 35.54472322 -12.99047852 35.52856445 C-14.36526367 35.51116211 -14.36526367 35.51116211 -15.76782227 35.4934082 C-18.01891179 35.33157396 -18.01891179 35.33157396 -19.05297852 36.59106445 Z M-10.49047852 43.27856445 C-11.47081055 43.71362305 -12.45114258 44.14868164 -13.46118164 44.59692383 C-14.39768555 45.03198242 -15.33418945 45.46704102 -16.29907227 45.9152832 C-17.59349243 46.50442505 -17.59349243 46.50442505 -18.9140625 47.10546875 C-21.6247951 48.98822276 -22.19489327 50.4379961 -23.05297852 53.59106445 C-23.05297852 54.91106445 -23.05297852 56.23106445 -23.05297852 57.59106445 C-18.04316775 56.0834098 -13.56478657 53.96538546 -8.92797852 51.59106445 C-7.87416992 51.05739258 -7.87416992 51.05739258 -6.79907227 50.51293945 C-5.46067759 49.83488695 -4.12306023 49.15529703 -2.78637695 48.47387695 C-0.88014132 47.5030392 1.03166682 46.54377972 2.94702148 45.59106445 C2.28702148 43.28106445 1.62702148 40.97106445 0.94702148 38.59106445 C-2.70208934 38.59106445 -7.2328287 41.77454145 -10.49047852 43.27856445 Z M-6.05297852 55.77856445 C-6.87926758 56.16592773 -7.70555664 56.55329102 -8.55688477 56.95239258 C-10.22905853 57.74399283 -11.89447616 58.55001573 -13.55297852 59.36987305 C-15.2210455 60.18468467 -16.90959619 60.95881591 -18.61547852 61.69116211 C-23.28506481 63.80255203 -23.28506481 63.80255203 -26.05688477 67.90820312 C-26.55933649 70.15276567 -26.89811544 72.29809177 -27.05297852 74.59106445 C-15.98397609 69.39037339 -4.95997894 64.12463237 5.94702148 58.59106445 C5.28702148 56.28106445 4.62702148 53.97106445 3.94702148 51.59106445 C0.72161992 51.59106445 -3.18939027 54.41997484 -6.05297852 55.77856445 Z M-1.04516602 68.0559082 C-1.74690948 68.40867325 -2.44865295 68.76143829 -3.17166138 69.12489319 C-6.18584532 70.64018873 -9.19767851 72.16013256 -12.2097168 73.6796875 C-14.40405136 74.78588888 -16.59957429 75.88970472 -18.79516602 76.9934082 C-19.47650604 77.33822739 -20.15784607 77.68304657 -20.85983276 78.03831482 C-23.56819142 79.39951406 -26.17259813 80.63093766 -29.05297852 81.59106445 C-29.8586149 83.69690883 -29.8586149 83.69690883 -30.24047852 86.15356445 C-30.47831055 87.39299805 -30.47831055 87.39299805 -30.72094727 88.6574707 C-30.83051758 89.29555664 -30.94008789 89.93364258 -31.05297852 90.59106445 C-25.83084948 89.00353722 -21.02604047 86.8142917 -16.11547852 84.46606445 C-15.28878662 84.07298096 -14.46209473 83.67989746 -13.61035156 83.27490234 C-5.9660832 79.60879611 1.51525662 75.6679818 8.94702148 71.59106445 C8.28702148 69.28106445 7.62702148 66.97106445 6.94702148 64.59106445 C4.33949787 64.59106445 1.29804448 66.87011775 -1.04516602 68.0559082 Z M2.19702148 80.96606445 C-7.80229411 86.01688154 -17.9250537 90.80482227 -28.05297852 95.59106445 C-28.05297852 95.92106445 -28.05297852 96.25106445 -28.05297852 96.59106445 C-14.93452091 97.74715864 -7.12911792 95.51695592 3.94702148 88.59106445 C5.58072445 87.73419431 7.22414716 86.89503518 8.88452148 86.09106445 C9.89514648 85.59606445 10.90577148 85.10106445 11.94702148 84.59106445 C11.28702148 82.28106445 10.62702148 79.97106445 9.94702148 77.59106445 C7.40601555 77.59106445 4.47329858 79.8071928 2.19702148 80.96606445 Z M5.82202148 93.59106445 C4.91194336 93.96231445 4.00186523 94.33356445 3.06420898 94.71606445 C2.01620117 95.14918945 2.01620117 95.14918945 0.94702148 95.59106445 C0.94702148 95.92106445 0.94702148 96.25106445 0.94702148 96.59106445 C5.23702148 96.59106445 9.52702148 96.59106445 13.94702148 96.59106445 C13.61702148 94.94106445 13.28702148 93.29106445 12.94702148 91.59106445 C10.24519093 91.59106445 8.3171236 92.56743281 5.82202148 93.59106445 Z " fill="#000000" transform="translate(66.052978515625,6.408935546875)"/>
</svg>
